<svg width="104" height="126" viewBox="0 0 104 126" fill="none" xmlns="http://www.w3.org/2000/svg">
<path fill-rule="evenodd" clip-rule="evenodd" d="M0.2048 125.753H2.62703C2.38927 125.485 2.13664 125.247 1.88402 124.994C1.36064 124.459 0.799451 123.962 0.2048 123.508V125.708V125.753ZM3.72672 125.753H6.04492C5.35058 124.823 4.58546 123.948 3.75643 123.136C2.67025 122.086 1.48025 121.15 0.2048 120.341V122.526C1.51107 123.448 2.69461 124.532 3.72672 125.753ZM7.07028 125.753H9.23987C8.21625 124.128 7.00415 122.631 5.62884 121.292C4.01859 119.71 2.19242 118.363 0.2048 117.293V119.449C1.70298 120.342 3.08976 121.41 4.33595 122.63C5.34869 123.605 6.26446 124.675 7.07028 125.827V125.753ZM10.2058 125.753H12.2862C11.0114 123.413 9.39352 121.278 7.48637 119.419C5.35438 117.336 2.89431 115.618 0.2048 114.334V116.356C4.34097 118.505 7.80229 121.757 10.2058 125.753ZM13.1778 125.753H15.1989C12.0816 119.321 6.73817 114.239 0.160221 111.45V113.501C5.73648 116.065 10.312 120.398 13.1778 125.827V125.753ZM16.1499 125.753H18.1412C16.4267 121.852 13.958 118.329 10.8772 115.387C7.79634 112.445 4.16421 110.142 0.18997 108.61V110.528C7.21911 113.422 12.912 118.842 16.1499 125.723V125.753ZM19.0328 125.753H20.9944C19.1412 121.14 16.3274 116.974 12.7402 113.534C9.15304 110.094 4.87476 107.457 0.18997 105.8V107.733C4.38599 109.304 8.21952 111.712 11.4584 114.809C14.6973 117.907 17.2741 121.63 19.0328 125.753ZM21.8711 125.753H23.8029C21.834 120.439 18.6882 115.64 14.6013 111.715C10.5144 107.791 5.59254 104.844 0.2048 103.094V105.012C5.11186 106.7 9.593 109.436 13.337 113.03C17.081 116.624 19.9982 120.991 21.886 125.827L21.8711 125.753ZM24.6797 125.753H26.5967C24.5375 119.71 21.0677 114.246 16.4751 109.814C11.8825 105.382 6.29972 102.11 0.18997 100.269V102.157C5.81335 103.936 10.9497 106.991 15.1979 111.084C19.4461 115.177 22.6911 120.197 24.6797 125.753ZM27.4734 125.753H29.3755C27.222 118.998 23.4293 112.883 18.3363 107.953C13.2432 103.023 7.00869 99.4333 0.18997 97.5036V99.3918C6.52284 101.259 12.3109 104.63 17.0614 109.217C21.8118 113.804 25.3839 119.472 27.4734 125.738V125.753ZM30.2374 125.753H32.1247C29.9058 118.284 25.8022 111.513 20.2089 106.091C14.6157 100.669 7.72139 96.7801 0.18997 94.7977V96.671C7.23114 98.6145 13.6719 102.296 18.9218 107.377C24.1716 112.458 28.0624 118.776 30.2374 125.753ZM32.9866 125.753H34.859C32.5712 117.574 28.1573 110.149 22.0672 104.233C15.977 98.3175 8.42817 94.1229 0.18997 92.0768V93.9502C7.9391 95.9601 15.0345 99.9469 20.783 105.521C26.5314 111.095 30.7363 118.066 32.9866 125.753ZM35.7209 125.753H37.5933C35.24 116.866 30.5167 108.786 23.9285 102.378C17.3402 95.9698 9.1349 91.4737 0.18997 89.3708V91.1996C8.64853 93.2671 16.4017 97.5572 22.6482 103.627C28.8946 109.696 33.4077 117.324 35.7209 125.723V125.753ZM38.4403 125.753H40.3127C37.9013 116.158 32.8727 107.422 25.7879 100.52C18.7031 93.6177 9.84084 88.8211 0.18997 86.6649V88.5234C9.35069 90.6328 17.759 95.2123 24.5021 101.765C31.2453 108.318 36.0657 116.593 38.4403 125.693V125.753ZM41.1598 125.753H43.0173C40.5631 115.447 35.2356 106.05 27.6543 98.6543C20.0729 91.2586 10.549 86.1678 0.18997 83.9738V85.8175C10.0632 87.9861 19.1328 92.8757 26.3731 99.9331C33.6134 106.991 38.7354 115.934 41.1598 125.753ZM43.8643 125.753H45.7218C43.2235 114.738 37.5967 104.681 29.5187 96.7912C21.4407 88.9016 11.2558 83.516 0.18997 81.2827V83.1264C10.782 85.3226 20.5261 90.5018 28.2744 98.0538C36.0226 105.606 41.4523 115.216 43.9237 125.753H43.8643ZM46.5689 125.753H48.3818C45.8439 114.032 39.9208 103.315 31.348 94.9338C22.7751 86.5522 11.9303 80.8747 0.160221 78.6065V80.4501C11.4436 82.7004 21.8318 88.1786 30.0644 96.2201C38.2969 104.262 44.02 114.521 46.5392 125.753H46.5689ZM49.2586 125.753H51.1012C48.8515 114.803 43.7508 104.643 36.3153 96.2993V96.7751C36.3221 96.9898 36.2538 97.2001 36.1221 97.3698L35.9587 97.6374C35.8141 97.7498 35.6599 97.8494 35.4979 97.9348C42.3792 105.851 47.1351 115.387 49.318 125.649L49.2586 125.753ZM51.9483 125.753H53.791C51.3054 113.148 45.2074 101.541 36.241 92.3444C36.0358 93.1348 35.9705 93.955 36.0478 94.7679C44.0878 103.442 49.5885 114.161 51.9483 125.753ZM54.638 125.753H56.4658C55.5223 120.76 54.027 115.888 52.0077 111.227C51.5897 111.24 51.1713 111.21 50.7595 111.137C50.1353 111.063 50.1651 111.137 49.9124 110.914C52.0682 115.668 53.6593 120.658 54.6529 125.782L54.638 125.753ZM57.3129 125.753H59.1406C58.2049 120.648 56.7099 115.662 54.6826 110.885L53.9693 111.108L53.1965 111.212H52.8399C54.8552 115.901 56.3502 120.797 57.298 125.812L57.3129 125.753ZM59.9877 125.753H61.8304C60.8948 120.423 59.3749 115.212 57.298 110.216C57.1642 110.216 57.298 110.349 56.7927 110.439H56.6887C56.3404 110.543 55.9815 110.608 55.6188 110.632C57.6481 115.48 59.143 120.535 60.0769 125.708L59.9877 125.753ZM62.6625 125.753H64.4904C63.5065 119.899 61.8407 114.18 59.527 108.714C59.3548 109.043 59.0984 109.32 58.784 109.517L58.3679 109.829L58.1302 109.948C60.224 115.028 61.7539 120.323 62.6923 125.738L62.6625 125.753ZM65.3374 125.753H67.1652C66.0658 119.021 64.1029 112.46 61.3251 106.231C60.9543 106.616 60.6255 107.04 60.3443 107.495L60.2255 107.703L60.1214 107.911C62.5718 113.628 64.328 119.618 65.3523 125.753H65.3374ZM67.9974 125.753H69.8252C68.665 118.209 66.4489 110.867 63.2421 103.941L63.1084 104.254L62.0087 105.592C64.9071 112.016 66.9456 118.795 68.0717 125.753H67.9974ZM70.6574 125.753H72.4852C71.1758 117.112 68.5233 108.729 64.6241 100.908C64.5503 101.128 64.461 101.341 64.3566 101.548L63.6285 103.034C67.0609 110.227 69.4334 117.879 70.6722 125.753H70.6574ZM73.3322 125.753H75.1303C73.6765 115.938 70.5554 106.444 65.9021 97.682C65.6643 98.2024 65.5009 98.7674 65.2334 99.2729L65.0253 99.6892V99.823C69.1691 107.965 71.9788 116.719 73.3471 125.753H73.3322ZM75.9922 125.753H77.82C76.2554 114.941 72.7301 104.506 67.4178 94.9612L67.1949 95.3329C67.0463 95.6154 66.9423 95.9722 66.7788 96.225L66.5708 96.5372L66.4073 96.7602C71.2654 105.771 74.5093 115.563 75.9922 125.693V125.753ZM78.6522 125.753H80.4651C78.8382 114.002 74.9525 102.677 69.0228 92.4039C69.0228 92.4039 69.0228 92.508 69.0228 92.5526C68.9239 92.7634 68.7879 92.9548 68.6215 93.1176L68.3243 93.5339C68.25 93.6974 68.3243 93.6379 68.25 93.8461C68.1757 94.0543 68.25 93.9502 68.25 94.0989L68.1757 94.2178C73.6497 103.967 77.2628 114.651 78.8305 125.723L78.6522 125.753ZM81.2973 125.753H83.1251C81.402 113.006 77.1044 100.744 70.4939 89.7128L69.9589 90.813V90.9171C69.87 91.1229 69.7657 91.3217 69.6469 91.5118C75.7797 102.026 79.7839 113.646 81.4311 125.708L81.2973 125.753ZM83.9573 125.753H85.7851C83.9736 111.956 79.2254 98.7076 71.861 86.9028C71.7273 87.1555 71.5787 87.4083 71.4152 87.7503L70.91 88.791C77.7904 100.073 82.2629 112.657 84.0465 125.753H83.9573ZM86.6173 125.753H88.5046C86.6053 110.913 81.4055 96.6871 73.2877 84.1225L72.5149 85.7431L72.3812 86.0702C79.966 98.1108 84.8485 111.655 86.6916 125.767L86.6173 125.753ZM89.2624 125.753H91.0902C89.1171 109.884 83.4634 94.6958 74.5805 81.4017L74.3278 81.818C74.2683 82.007 74.1833 82.1871 74.0752 82.3532L73.9861 82.4722L73.6294 83.2305C82.0002 96.0328 87.3465 110.575 89.2624 125.753ZM91.9224 125.753H93.7502C91.6754 108.888 85.5576 92.7745 75.9179 78.7849C75.6801 79.3053 75.5018 79.7662 75.383 79.9744L74.9817 80.6286C84.0753 94.132 89.8542 109.593 91.8481 125.753H91.9224ZM94.5824 125.753H96.3954C94.2793 107.879 87.7304 90.819 77.3445 76.1236C77.077 76.7629 76.765 77.3725 76.438 77.982C86.2855 92.1889 92.5142 108.588 94.5824 125.753ZM97.2275 125.753H99.0405C96.8519 106.742 89.765 88.6259 78.4739 73.1797C78.2317 73.6327 78.0279 74.1052 77.8646 74.5922C77.8168 74.7937 77.7573 74.9923 77.6863 75.1869C88.3629 90.1154 95.0857 107.507 97.2275 125.738V125.753ZM99.8727 125.753H101.7C99.425 105.66 91.8157 86.5421 79.6627 70.3846V70.4887L79.5438 70.8009L78.9345 72.2877C90.5068 87.9793 97.7577 106.436 99.9618 125.812L99.8727 125.753ZM102.518 125.753H103.617V120.311C100.567 101.03 92.6953 82.8326 80.7326 67.411C80.7326 67.5894 80.6286 67.7084 80.5543 67.8868L80.0045 69.3736C92.4615 85.7713 100.247 105.239 102.533 125.708L102.518 125.753ZM103.617 115.613V107.703C99.389 91.9309 91.9523 77.2018 81.7729 64.4374L81.0595 66.4594C92.3166 80.8221 100.048 97.6272 103.632 115.523L103.617 115.613ZM103.617 104.655V98.7079C98.8791 85.0618 91.7487 72.3695 82.5604 61.2259L82.2632 63.0696C82.2236 63.2311 82.174 63.39 82.1147 63.5453C91.9025 75.7129 99.2173 89.6782 103.647 104.655H103.617ZM103.617 96.2696V91.3185C98.4897 78.8539 91.3732 67.3049 82.5456 57.1224C82.5737 57.5035 82.5737 57.8862 82.5456 58.2673V59.1593C82.5307 59.392 82.5307 59.6254 82.5456 59.8581C91.6258 70.6672 98.7699 82.9657 103.662 96.2101L103.617 96.2696ZM103.617 89.1924V84.7321C98.0234 72.8334 90.6192 61.8745 81.6688 52.2457L81.8026 52.7066C82.0367 53.497 82.2204 54.3015 82.3524 55.1153C82.3366 55.3231 82.3366 55.5318 82.3524 55.7397C91.1592 65.6934 98.3272 76.9854 103.588 89.1924H103.617ZM103.617 82.8736V78.8444C97.6807 67.4279 90.0836 56.9559 81.0744 47.7705C81.0896 47.8341 81.0896 47.9003 81.0744 47.9638C81.0812 48.8658 81.1607 49.7657 81.3122 50.6549C90.3423 60.1933 97.8595 71.0587 103.603 82.8736H103.617ZM103.617 77.09V73.3582C97.5577 62.7173 90.0566 52.9658 81.3271 44.3807L81.0744 44.5888L80.0936 43.9941C79.4174 43.7118 78.685 43.5896 77.9538 43.6373C88.258 53.3339 96.9247 64.636 103.617 77.1048V77.09ZM103.617 71.6781V68.1693C97.7176 58.5746 90.6439 49.7542 82.5604 41.9126C82.0552 43.5927 82.1592 42.6113 81.7134 43.6075C90.2256 51.9446 97.5825 61.3855 103.588 71.6781H103.617ZM103.617 66.6081V63.248C96.9762 53.1483 89.0428 43.9613 80.0194 35.9208C79.8168 36.0181 79.6229 36.1324 79.4398 36.2628C79.2317 36.456 79.2912 36.4709 79.0088 36.6196C78.8147 36.7151 78.6305 36.8296 78.459 36.9615C79.3952 37.7941 80.3314 38.6417 81.2527 39.504C81.5351 38.3443 81.7134 38.3294 82.5456 38.3294L83.1549 39.1025C83.1662 39.7542 83.0657 40.4029 82.8577 41.0205C90.7997 48.678 97.7853 57.2697 103.662 66.6081H103.617ZM103.617 61.7612V58.5646C97.4769 49.7636 90.3523 41.6926 82.3821 34.5084L82.293 34.6124C82.2038 34.7165 82.293 34.6124 82.1592 34.7314L80.8812 35.445H80.7772C89.4601 43.2108 97.1336 52.0371 103.617 61.7166V61.7612ZM103.617 57.1373V54.0299C97.4001 45.601 90.2847 37.8739 82.397 30.9847C82.3977 31.3976 82.4275 31.81 82.4862 32.2187C82.5585 32.6712 82.5982 33.1283 82.605 33.5866C90.4622 40.6256 97.51 48.5197 103.617 57.1224V57.1373ZM103.617 52.6769V49.7033C97.3301 41.58 90.2021 34.1445 82.3524 27.5205C82.4114 28.3272 82.4114 29.1372 82.3524 29.9439C90.2186 36.7354 97.3284 44.3573 103.558 52.6769H103.617ZM103.617 48.3504V45.466C97.1951 37.5536 89.9799 30.3199 82.0849 23.8778C82.1246 24.2037 82.1246 24.5332 82.0849 24.8591C82.0384 25.0293 82.0085 25.2036 81.9958 25.3795C81.9909 25.6654 82.0259 25.9506 82.0998 26.2269C90.0327 32.8256 97.2499 40.2409 103.632 48.3504H103.617ZM103.617 44.1576V41.3327C95.8786 32.1712 87.0847 23.9567 77.4188 16.8602C68.2207 10.138 58.29 4.48178 47.8171 0H43.0619C54.3107 4.41928 64.9756 10.2014 74.8183 17.217C76.0517 18.0942 77.2553 18.9714 78.459 19.8932C78.5927 19.6851 78.7265 19.5067 78.8751 19.3134C78.9882 19.1506 79.1363 19.0153 79.3087 18.9175C79.481 18.8197 79.6731 18.7619 79.8707 18.7484L80.2868 19.3431C80.3564 19.6306 80.3591 19.9302 80.2947 20.2189C80.2303 20.5076 80.1005 20.7777 79.9153 21.0083C88.6709 27.7947 96.6454 35.5339 103.692 44.0833L103.617 44.1576ZM103.617 40.0689V37.3035C89.8369 21.6959 73.0322 9.05054 54.2219 0.133806H49.8679C70.5413 9.28804 88.9062 22.9532 103.617 40.1284V40.0689ZM103.617 36.0546V33.3635C91.1941 19.8004 76.4807 8.53195 60.1512 0.0743213H56.124C74.1604 8.86348 90.3123 21.0846 103.677 36.0546H103.617ZM103.617 32.1444V29.4979C97.9501 23.5273 91.8291 18.0048 85.3096 12.9797C79.1071 8.1901 72.5553 3.87132 65.7089 0.0594843H61.9344C77.5265 8.33733 91.6172 19.1783 103.617 32.1295V32.1444ZM103.617 28.3233V25.7809C93.8613 15.868 82.874 7.24855 70.9249 0.133806H67.403C80.7765 7.75485 92.979 17.2695 103.632 28.3828L103.617 28.3233ZM103.617 24.5469V21.9896C99.3094 17.7483 94.7753 13.7429 90.0352 9.99122C85.5388 6.44516 80.8614 3.13506 76.0219 0.0743213H72.5743C83.8836 6.93077 94.3092 15.1497 103.617 24.5469ZM103.617 20.8299V18.347C99.9916 14.8778 96.2121 11.5821 92.2791 8.45983C88.5937 5.48625 84.7845 2.70101 80.8515 0.104086H77.5525C82.0205 2.98846 86.3498 6.08096 90.5404 9.38163C95.0974 12.9758 99.4625 16.8071 103.617 20.8596V20.8299ZM103.617 17.1873V14.7043C100.645 11.9686 97.604 9.34198 94.4932 6.82436C91.5806 4.47523 88.5838 2.22521 85.5028 0.0743213H82.3227C85.9189 2.51265 89.3863 5.07988 92.7249 7.77592C96.4697 10.7495 100.066 13.9015 103.543 17.1873H103.617ZM103.617 13.5892V11.1212C101.359 9.07934 99.0454 7.09695 96.6777 5.17404C94.5081 3.41963 92.2939 1.71478 90.0352 0.0594843H87.0185C89.7726 2.04187 92.4623 4.07378 95.0876 6.15528C98.0597 8.53414 100.928 11.0121 103.692 13.5892H103.617ZM103.617 10.0209V7.61235C102.042 6.22964 100.437 4.86181 98.8027 3.53856C97.1681 2.21532 95.9347 1.18944 94.4487 0.0594843H91.4766C93.4233 1.54627 95.3403 3.03306 97.2424 4.51985C99.4219 6.29409 101.562 8.11787 103.662 9.99122L103.617 10.0209ZM103.617 6.51214V4.11839L100.928 1.87337C100.2 1.26379 99.4417 0.669037 98.7136 0.0743213H95.7415C96.9452 0.99613 98.1192 1.94767 99.2931 2.89921C100.779 4.07377 102.176 5.29298 103.588 6.51214H103.617ZM103.617 3.03306V0.68391L102.993 0.163525L102.889 0.0743213H100.021L101.507 1.23401C102.235 1.82873 102.993 2.42348 103.677 3.03306H103.617ZM40.7436 0.0594843H35.3642C48.1016 4.35613 60.1836 10.3952 71.2666 18.005C72.7527 19.0011 74.1496 20.027 75.5613 21.0827L76.0814 21.1719H76.4677V21.7368L77.5377 22.5546V22.4208V22.1977C77.5572 21.8804 77.6121 21.5662 77.7012 21.2611L77.8943 20.6218C76.6609 19.6999 75.4275 18.7781 74.1644 17.8861C63.7871 10.5122 52.4983 4.51513 40.5802 0.0446018L40.7436 0.0594843ZM79.5884 21.7963C79.4695 22.0491 79.3952 22.3316 79.2912 22.5843C79.1428 22.9016 79.0186 23.2296 78.9197 23.5656L79.9599 24.3982C80.0788 23.967 79.9599 23.2831 80.2422 22.9114L80.4949 22.733L79.4695 21.9153L79.5884 21.7963ZM32.734 0.0594843H26.3292C40.6901 3.95585 54.3534 10.0761 66.8234 18.1983C68.9633 19.581 71.0586 21.0381 73.1093 22.5397C73.3397 22.5347 73.5689 22.5048 73.7929 22.4505C73.7702 22.2181 73.7702 21.9841 73.7929 21.7517L74.1941 21.3354C73.0152 20.4731 71.8264 19.6256 70.6277 18.793C58.9121 10.751 46.0796 4.47416 32.5408 0.163525L32.734 0.0594843ZM76.6163 22.8817C76.6508 23.0696 76.727 23.2474 76.8392 23.402L77.1216 23.2682L76.6163 22.8817ZM78.8305 24.6063V24.7104L79.1574 24.874L78.8305 24.6063ZM23.1194 0.0594843H14.5896C30.2133 2.94146 45.2301 8.47257 58.9921 16.4142C62.4595 18.3965 65.8278 20.5326 69.097 22.8222C69.5429 22.3167 70.0481 22.4356 70.5831 22.2275C70.9249 22.1085 70.9397 22.0639 71.1478 22.0937C69.5874 20.9934 67.9974 19.9081 66.3925 18.8525C53.1129 10.2242 38.4879 3.87275 23.1194 0.0594843ZM9.58167 0.0594843H0.279128V0.802879C21.1825 2.54654 41.4092 9.05656 59.4082 19.8338C61.2508 20.9191 63.0638 22.0639 64.847 23.2534C65.5008 23.1344 65.2928 23.2534 65.9913 23.6548C66.4668 23.8927 66.5411 24.3387 67.076 24.2792C67.4155 24.2656 67.7488 24.1847 68.0568 24.0413L68.354 23.8332C68.5324 23.6845 68.354 23.744 68.5323 23.5656C65.2928 21.3206 61.9493 19.1944 58.5165 17.217C43.3882 8.4877 26.7519 2.68724 9.47764 0.118923L9.58167 0.0594843ZM0.279128 1.62059V3.47908C21.4687 5.25909 41.9378 12.0245 60.0174 23.2236C61.0725 23.8778 62.1276 24.5469 63.1678 25.2308C63.0341 24.4874 62.7814 24.0711 63.8365 23.5061C62.2613 22.4802 60.6713 21.4841 59.0515 20.5325C41.1531 9.84835 21.0501 3.3999 0.279128 1.68008V1.62059ZM0.279128 4.26708V6.08096C21.7829 7.92333 42.5103 14.9976 60.6564 26.6878L62.4545 27.8624C62.6477 27.7137 62.4545 27.8624 62.7071 27.5799L62.9152 27.3569C63.0279 27.092 63.0981 26.8111 63.1232 26.5243C63.129 26.4154 63.129 26.3062 63.1232 26.1972C61.9493 25.4092 60.7456 24.7104 59.527 23.8778C41.5785 12.7567 21.2571 6.03715 0.219675 4.26708H0.279128ZM77.6863 37.3035H77.5525C77.1585 37.3484 76.7759 37.4642 76.4231 37.6455C76.1557 37.809 75.9476 37.9131 75.7693 38.0023C76.9779 38.9935 78.1667 40.064 79.3357 41.2138C79.7635 41.2508 80.1916 41.1463 80.5543 40.9164C80.7678 40.778 80.9542 40.6017 81.1041 40.396C79.9896 39.3404 78.8454 38.2997 77.6863 37.2886V37.3035ZM0.279128 6.91356V8.72744C21.374 10.5635 41.6969 17.5472 59.4676 29.0667C60.0025 28.7396 59.8688 29.0667 60.7158 28.6356L60.9239 28.5315C61.0923 28.4215 61.2876 28.3598 61.4886 28.3531H61.652L60.166 27.4015C42.1578 15.7867 21.5821 8.75785 0.234549 6.92844L0.279128 6.91356ZM74.8183 38.2997L74.2833 38.4037C73.7732 38.5383 73.276 38.7175 72.7972 38.939C73.9266 39.8905 75.0411 40.857 76.1408 41.9126C76.4506 41.8818 76.7583 41.8321 77.0621 41.7639L77.3891 41.6747C78.1915 41.4071 77.7755 41.6003 78.2956 41.4814C77.1513 40.4258 75.9773 39.385 74.7885 38.374L74.8183 38.2997ZM0.279128 9.54516V11.359C20.6925 13.186 40.3617 19.9243 57.61 30.9996L57.7884 30.7468L57.9073 30.5387V30.3008C57.9073 30.3008 57.9073 30.2116 58.0856 30.0183L58.6503 29.602C41.0779 18.2896 21.02 11.4216 0.2048 9.58976L0.279128 9.54516ZM71.9651 39.2809C71.6955 39.4167 71.4414 39.5812 71.2072 39.7716C70.9608 39.9729 70.7628 40.2269 70.6277 40.515C71.549 41.2881 72.4703 42.0761 73.3619 42.8641L73.8077 42.6262C74.5062 42.3288 74.8777 42.2991 75.2938 42.1505C74.209 41.1692 73.1093 40.2176 71.9948 39.2809H71.9651ZM76.869 43.6075H76.2151C75.7247 43.6075 75.1452 43.6075 74.6548 43.6075H74.2981C75.6504 44.8415 76.9878 46.0904 78.2807 47.3691C78.7116 47.1609 79.6478 46.5811 80.0342 46.6852L80.2571 46.7744C79.1476 45.6741 78.0182 44.5888 76.869 43.5183V43.6075ZM0.279128 12.147V13.9609C19.8188 15.7454 38.6594 22.129 55.2621 32.5904C55.7754 32.6301 56.2897 32.5273 56.7482 32.2931L57.0602 31.9511L57.2237 31.6835C40.0933 20.6748 20.5569 13.9723 0.279128 12.147ZM70.1224 41.1394L69.6469 41.5706L69.0822 41.9126C68.9137 42.0155 68.7401 42.1098 68.562 42.1951C71.0734 44.2766 73.5105 46.477 75.8585 48.7518L76.1408 48.499C76.3043 48.3355 76.3934 48.172 76.6015 48.0827C76.9044 48.0067 77.2122 47.952 77.5228 47.9192C76.1854 46.6108 74.8183 45.3322 73.4214 44.0684C73.0378 44.0404 72.6546 44.1285 72.3217 44.3212C71.861 44.5591 71.7868 44.678 71.2518 44.5591C71.2366 44.4514 71.2491 44.3417 71.2881 44.2402C71.3271 44.1388 71.3913 44.0489 71.4747 43.9792C71.7575 43.6652 72.1013 43.4123 72.4852 43.2358C71.6976 42.537 70.8951 41.8531 70.0778 41.1692L70.1224 41.1394ZM0.279128 14.7935V16.6223C17.8388 18.2523 34.8348 23.6804 50.0907 32.5309C50.3117 32.3958 50.5614 32.3146 50.8196 32.2939C51.0777 32.2733 51.3371 32.3137 51.5768 32.412C52.082 32.7242 52.4387 33.2743 53.0628 32.977C53.1499 32.9349 53.2301 32.8797 53.3006 32.8134H53.3897L53.6721 32.7094C37.4519 22.7176 19.1432 16.6115 0.175096 14.8679L0.279128 14.7935ZM67.7002 42.656L67.5367 42.7749L67.2544 43.0128L66.8977 43.2804C66.6451 43.5034 66.6302 43.548 66.6005 43.7265C66.6039 43.7908 66.6039 43.8554 66.6005 43.9198L68.7998 45.7782L69.2457 45.5998C69.4686 45.5998 69.632 45.5998 69.632 45.8972C69.5975 46.0572 69.5426 46.2121 69.4686 46.3581L70.806 47.5475L71.118 47.0271C71.2938 46.8998 71.4953 46.8125 71.7084 46.7714C71.9215 46.7303 72.141 46.7364 72.3514 46.7892C72.8864 46.9825 72.9013 47.607 73.035 47.8597C73.1688 48.1125 73.5997 48.4247 73.8523 48.7815C74.3725 49.5101 74.2981 50.0751 75.2492 49.3019C72.8517 46.9825 70.375 44.7573 67.819 42.6262L67.7002 42.656ZM0.249379 17.4846V19.2985C17.1483 20.9116 33.5079 26.1175 48.2332 34.5678C48.521 34.097 48.8387 33.645 49.1843 33.2149L49.2586 33.1405C34.2188 24.4821 17.495 19.1582 0.219675 17.5293L0.249379 17.4846ZM66.2141 44.8713C66.2141 45.3322 66.5857 45.5552 67.1652 45.7039H67.2544L66.2141 44.8416V44.8713ZM68.9484 47.1907C68.8714 47.3438 68.8068 47.5029 68.7552 47.6664V47.7556C68.6809 47.9043 68.3986 48.0084 68.2203 48.0827C68.1554 48.0999 68.0947 48.1303 68.042 48.1719C67.9366 48.2309 67.8453 48.3121 67.7745 48.4098C68.1014 48.6923 68.4283 48.9748 68.7404 49.2722V49.183L69.6766 48.6328L70.2116 48.1125L69.0822 47.1163L68.9484 47.1907ZM0.219675 20.1311V21.9599C16.8306 23.5731 32.9009 28.7399 47.3416 37.1102C47.9509 36.917 47.7131 36.6345 47.728 36.1289L47.8171 35.341C33.1998 26.9379 16.9564 21.7573 0.175096 20.146L0.219675 20.1311ZM67.4773 49.406C67.5861 49.9811 67.7658 50.5404 68.0122 51.0712H68.4432L68.7701 50.5805L67.4773 49.406ZM0.2048 22.8073V24.6361C16.3027 26.2355 31.8753 31.2482 45.8853 39.3404L45.9596 38.4929C46.0023 38.1359 46.1838 37.8101 46.4648 37.586C32.2608 29.447 16.4948 24.4103 0.2048 22.8073ZM0.2048 25.4687V27.2677C22.2961 29.518 43.212 38.3194 60.27 52.5431V52.1119C60.3215 51.5639 60.4413 51.0245 60.6267 50.5062C56.2642 46.9397 51.645 43.6996 46.8066 40.8123C46.7054 40.8148 46.6049 40.7948 46.5124 40.7536C46.4199 40.7125 46.3376 40.6513 46.2716 40.5745C32.2204 32.3224 16.5509 27.2098 0.338582 25.5876L0.2048 25.4687ZM60.909 49.7033C60.9809 49.28 60.9452 48.8454 60.805 48.4396C60.7376 48.0844 60.6121 47.7428 60.4335 47.4286C60.3555 47.3218 60.3 47.2005 60.27 47.0717V46.8933C58.6206 45.5998 56.9265 44.3509 55.2027 43.1466H54.6232H54.5042C53.1965 43.2953 53.4194 42.9384 52.5427 42.4478C52.2455 42.2397 52.5427 42.1951 52.1266 42.0613C51.7105 41.9275 51.7105 42.0613 51.5471 41.9572C50.9229 41.7639 50.7149 41.303 50.061 41.1394L49.7044 41.0651C49.3478 40.9462 49.5112 40.8867 49.1397 40.9016H49.0654H48.3967C52.7636 43.5897 56.9439 46.5701 60.909 49.8223V49.7033ZM60.5227 46.031C60.654 45.9175 60.7612 45.7787 60.8378 45.6229C60.9144 45.4671 60.9588 45.2974 60.9685 45.124C60.3176 44.4593 59.5891 43.8753 58.7989 43.3845C58.6373 43.2592 58.4386 43.1912 58.2342 43.1912H58.0707C57.8181 43.1912 57.7141 43.102 57.5952 43.1912C57.4317 43.2655 57.6992 43.1912 57.4466 43.1912H56.7482C58.0261 44.113 59.3041 45.0646 60.5524 46.031H60.5227ZM0.2048 28.1152V29.9291C22.5796 32.2735 43.6783 41.4985 60.597 56.3344V56.1114C60.597 55.7694 60.4186 55.7992 60.2997 54.922C60.2626 54.5115 60.2626 54.0984 60.2997 53.6879C43.3115 39.3279 22.3877 30.4308 0.264254 28.1598L0.2048 28.1152ZM0.2048 30.7468V32.5755C15.7234 34.2446 30.6822 39.3214 44.0129 47.4434C44.7856 47.5475 46.0636 47.5475 46.0636 48.1719L45.603 48.4247C51.2598 51.9974 56.5685 56.0941 61.4588 60.661C61.4289 60.2998 61.4289 59.9368 61.4588 59.5756L61.2508 58.5943C61.2508 58.3119 61.2508 58.5943 61.2508 58.4308L61.0725 57.851C44.1431 42.6388 22.8479 33.159 0.219675 30.7617L0.2048 30.7468ZM0.2048 33.4081V35.222C14.2373 36.7423 27.8107 41.119 40.0898 48.0827C40.0529 48.0461 40.0245 48.0018 40.0065 47.953C39.9886 47.9042 39.9815 47.8521 39.9858 47.8003C39.9858 47.4583 40.6842 46.9974 41.7096 46.923C28.9793 39.5307 14.8392 34.896 0.2048 33.3189V33.4081ZM44.0575 48.4247H43.359C43.0335 48.4223 42.7106 48.4829 42.408 48.6031H42.1405C41.7987 48.6031 41.873 48.8708 40.6545 48.3801L40.3127 48.2314C48.2511 52.7843 55.5557 58.3631 62.0384 64.824L63.361 66.1621C63.2304 65.7101 63.0562 65.2719 62.8409 64.8537L62.6477 64.4374C62.4494 64.1633 62.2801 63.8693 62.1424 63.5602L61.8601 63.1588C61.7554 62.9663 61.6945 62.7531 61.6818 62.5343C61.6742 62.2971 61.6342 62.062 61.5629 61.8355C56.208 56.7468 50.336 52.2321 44.0426 48.3652L44.0575 48.4247ZM0.2048 36.0546V37.8685C15.8634 39.6332 30.8892 45.0518 44.0724 53.6879C45.0383 52.6323 45.1572 53.9853 45.3801 54.2232C45.603 54.4611 46.8661 54.4165 47.3565 54.6692C47.8468 54.922 47.8617 54.8476 48.0698 55.1599L48.3372 55.5018C48.793 55.9687 49.076 56.577 49.1397 57.2265C53.0504 60.1264 56.7455 63.3066 60.1958 66.7419C61.4737 68.0206 62.722 69.329 63.9405 70.682C63.9405 70.5481 63.9405 70.5481 63.9405 70.221C63.9405 70.1318 63.9405 69.8493 63.9405 69.7899C63.9405 69.7304 63.9405 69.4776 63.9405 69.2398C63.9405 68.199 63.9405 68.2882 63.8068 67.9314C63.0192 67.0988 62.2316 66.281 61.4143 65.4633C44.9088 49.002 23.3075 38.6335 0.145391 36.0546H0.2048ZM0.2048 38.7011V40.515C13.3901 42.0468 26.1289 46.2345 37.6527 52.8256C37.6666 52.711 37.7076 52.6014 37.7722 52.5057C37.8368 52.4101 37.9232 52.3312 38.0242 52.2755C38.5094 52.1311 39.0069 52.0316 39.5102 51.9781L40.1641 52.5282C40.2384 52.6472 40.0304 53.7177 41.9325 54.4165C42.6903 54.699 43.1213 54.6841 43.5671 54.3124C30.5394 45.8058 15.7064 40.4601 0.249379 38.7011H0.2048ZM49.1545 58.2673C49.1322 58.6984 48.9706 59.1106 48.6939 59.4418L48.2481 59.8432C51.801 62.5362 55.1718 65.4616 58.3382 68.6004C60.597 70.8603 62.7963 73.2392 64.8173 75.7073V75.5437C64.6416 75.2108 64.5306 74.8476 64.4904 74.4732L64.1783 73.4474C64.1426 73.3411 64.1177 73.2315 64.104 73.1203C64.104 72.9121 64.104 72.4809 64.104 72.0498C62.6774 70.4242 61.1914 68.8482 59.6459 67.3218C56.3847 64.0743 52.9095 61.0493 49.2437 58.2673H49.1545ZM0.2048 41.3476V43.1764C12.4182 44.6211 24.2366 48.4179 35.0076 54.357C35.3856 54.374 35.7644 54.3491 36.137 54.2827C36.3599 54.2827 37.2366 54.0894 37.519 53.7028C26.0446 47.0716 13.3365 42.8571 0.175096 41.3179L0.2048 41.3476ZM47.6388 60.4082L47.2673 60.7948C47.2673 60.7948 47.2673 60.7056 47.1484 61.0029L46.8958 61.4638C46.8439 61.6141 46.8042 61.7682 46.7769 61.9247C53.9509 67.3622 60.3285 73.7781 65.7238 80.9854L66.868 80.4799C67.0249 80.4415 67.1789 80.3918 67.3287 80.3312H67.4327C64.4998 76.3703 61.2708 72.6376 57.7735 69.1654C54.6057 66.0133 51.2297 63.0777 47.6685 60.3785L47.6388 60.4082ZM67.938 79.7365C68.0724 79.5109 68.149 79.2555 68.1608 78.9931L67.7299 78.5619L67.1949 78.7403L67.938 79.7365ZM0.2048 44.0536V45.8823C12.3632 47.3732 24.1059 51.2591 34.7549 57.3157C34.7549 57.1819 34.7549 57.0332 34.7549 56.8697C34.7549 55.7397 33.5513 55.9627 33.4175 55.2045C33.4128 55.1007 33.4318 54.9973 33.473 54.902C33.5142 54.8067 33.5765 54.722 33.6553 54.6544C23.2514 49.0679 11.8971 45.4728 0.175096 44.0536H0.2048ZM47.4754 63.6643C47.5878 63.9784 47.7375 64.2779 47.9212 64.5563C48.3361 65.0464 48.6176 65.6354 48.7385 66.2662V67.0244C50.7793 68.7293 52.7359 70.5184 54.6083 72.3917C57.827 75.5728 60.8071 78.9868 63.5244 82.606C63.9041 82.1279 64.3867 81.7416 64.9362 81.476C62.1893 77.7896 59.1744 74.311 55.916 71.0685C53.2574 68.4309 50.4491 65.9488 47.5051 63.6345L47.4754 63.6643ZM0.2048 46.596V48.4247C7.75563 49.3737 15.1557 51.2771 22.2277 54.0894C22.7254 54.0712 23.2235 54.1061 23.7138 54.1934C25.0512 54.4462 25.4524 54.0894 26.9533 54.7733C27.414 54.9814 29.5687 57.4346 31.4114 57.7469C32.0763 57.9814 32.7566 58.1702 33.4473 58.3119C33.6308 58.3414 33.8184 58.3315 33.9978 58.2828C34.1772 58.2341 34.3441 58.1477 34.4875 58.0294C23.9278 51.9881 12.2754 48.102 0.2048 46.596ZM48.3818 67.7232C48.0799 68.0789 47.7574 68.4165 47.4159 68.7343L47.3416 68.9127L47.2524 69.1357C49.1545 70.7414 50.9824 72.4165 52.7359 74.161C56.0388 77.4457 59.0843 80.9798 61.8452 84.7321H61.9195C62.1531 84.5954 62.3476 84.4008 62.4842 84.1671C62.5741 83.9009 62.7044 83.6502 62.8706 83.4237L62.9449 83.3197C60.2228 79.6764 57.2431 76.233 54.0287 73.0162C52.2158 71.2221 50.3384 69.5024 48.3967 67.857L48.3818 67.7232ZM0.18997 49.287V51.0563C6.23537 51.8485 12.1819 53.2686 17.9331 55.2937C18.6574 54.9642 19.402 54.6811 20.1622 54.4462L20.5634 54.3273C13.9945 51.8405 7.15659 50.1339 0.18997 49.2424V49.287ZM47.1633 70.1021V70.1913L47.3119 71.351C47.3862 71.9606 47.5942 72.4215 47.5942 72.8378C48.7088 73.8339 49.7936 74.8598 50.8635 75.9154C54.2367 79.2725 57.3328 82.8973 60.1214 86.7541C60.1724 86.6864 60.2125 86.6111 60.2403 86.5311C60.8347 85.2524 60.7456 85.7877 61.2805 85.2673C58.518 81.4938 55.4621 77.9442 52.1415 74.6516C50.5366 73.0459 48.8722 71.5096 47.1484 70.0426L47.1633 70.1021ZM0.18997 51.8889V53.7177C5.75459 54.4694 11.2304 55.7743 16.5363 57.6131V57.3306C16.5323 57.1227 16.5836 56.9174 16.6849 56.7359C16.7379 56.4533 16.8492 56.1849 17.0118 55.9479V55.8735C11.5156 53.9879 5.84582 52.6532 0.0859375 51.8889H0.18997ZM47.3713 73.7893L47.2227 74.161C47.2227 74.3246 47.1484 74.7112 47.1336 74.7706C47.1187 74.8301 47.1336 74.7706 47.0444 74.949C46.9225 75.179 46.8516 75.4326 46.8363 75.6924C47.5794 76.3763 48.3075 77.0751 49.0208 77.7888C52.1303 80.8778 55.0016 84.1978 57.61 87.7205C58.3233 87.7205 59.0961 87.899 59.6162 87.4083C56.8125 83.5319 53.7016 79.8874 50.3136 76.5101C49.3626 75.5586 48.3818 74.6368 47.3416 73.7299L47.3713 73.7893ZM0.18997 54.5503V56.379C6.51249 57.265 12.711 58.8815 18.6613 61.1962C18.5215 60.9886 18.3568 60.7988 18.1709 60.6312C17.8285 60.2363 17.5341 59.8021 17.2941 59.3377C17.1237 59.1037 16.9746 58.8549 16.8483 58.5943C11.4629 56.7095 5.90205 55.3697 0.249379 54.5949L0.18997 54.5503ZM46.5392 76.6142C46.3793 77.0118 46.1854 77.3949 45.9596 77.759L45.8556 77.9374L45.7218 78.2497L47.2078 79.6621C50.3374 82.7791 53.2145 86.1399 55.812 89.7128V89.5195C55.812 89.1627 55.812 89.4303 55.812 89.1627C55.8502 88.8705 55.9743 88.5962 56.1686 88.3747C56.3245 88.1967 56.5172 88.0547 56.7333 87.9584C54.2172 84.5873 51.4556 81.4068 48.471 78.443C47.8617 77.8334 47.2227 77.2238 46.5837 76.6291L46.5392 76.6142ZM0.18997 57.2116V59.0255C6.98851 60.0023 13.6319 61.8564 19.9541 64.5415C19.7312 63.9468 19.7164 63.3074 19.5083 62.6979C19.4649 62.5867 19.4301 62.4724 19.4043 62.3559C13.2337 59.8619 6.78081 58.1343 0.18997 57.2116ZM45.4098 79.1269L44.9342 80.1528V80.2271L44.6519 80.7326L45.4692 81.5355C49.9709 86.008 53.9266 90.9988 57.2534 96.4034C57.7665 96.3662 58.2692 96.2404 58.7394 96.0317L59.0218 95.883C55.5646 90.2063 51.4331 84.9694 46.7175 80.2866L45.4692 79.0823L45.4098 79.1269ZM59.6162 95.4816C59.8243 95.3875 60.0443 95.3225 60.27 95.2883C60.7024 95.21 61.1454 95.21 61.5778 95.2883C61.0725 94.4557 60.5673 93.6379 60.0917 92.8202H59.9431H59.7053H59.5865L59.2298 92.6121C58.94 92.4278 58.6245 92.2875 58.2936 92.1958C58.046 92.1223 57.8069 92.0226 57.5803 91.8984L57.0899 91.6605C57.9815 92.954 58.8434 94.2624 59.6608 95.6154L59.6162 95.4816ZM62.5882 95.3032C62.8128 95.2973 63.0366 95.2724 63.257 95.2288C63.5063 95.1822 63.7437 95.0861 63.9554 94.9463C64.0864 94.8627 64.202 94.757 64.2972 94.6341C63.8216 93.8312 63.3461 93.0432 62.8111 92.2552H62.722C62.2087 92.5153 61.6712 92.7245 61.1171 92.8797C61.6075 93.6528 62.083 94.4408 62.6031 95.2437L62.5882 95.3032ZM64.8322 93.9353C64.9161 93.7528 65.0318 93.5867 65.1739 93.4447L65.5008 93.1622C65.7368 92.9929 66.014 92.8902 66.3033 92.8648L65.7684 91.9727H65.5454C64.743 91.9727 64.9807 91.8835 64.4755 91.7943H63.7919C63.7133 91.7801 63.6328 91.7801 63.5541 91.7943C63.9851 92.4931 64.4161 93.1919 64.8322 93.9056V93.9353ZM67.1355 92.6567C67.2399 92.6053 67.3291 92.5274 67.3942 92.431C67.4594 92.3345 67.4983 92.2226 67.507 92.1065C67.5356 92.0145 67.5356 91.9161 67.507 91.8241H66.7194C66.8829 92.0768 67.0315 92.3444 67.1801 92.5972L67.1355 92.6567ZM0.264254 59.9473V61.7612C7.66156 62.8593 14.8599 65.0279 21.6333 68.199L21.0538 66.7122C20.8655 66.3653 20.6872 66.0233 20.5188 65.6863C14.0448 62.8462 7.21649 60.8957 0.219675 59.8878L0.264254 59.9473ZM44.1318 81.595V81.6842C43.8752 82.2094 43.5665 82.7074 43.2104 83.171L43.5522 83.4981C47.5588 87.4762 51.1214 91.8781 54.1773 96.6264L54.9203 96.3885C55.3449 96.34 55.7737 96.34 56.1983 96.3885C52.9653 91.2263 49.151 86.4522 44.8302 82.16L44.1764 81.5355L44.1318 81.595ZM0.264254 62.5938V64.4374C7.98127 65.6213 15.4636 68.0146 22.4358 71.5294C22.4033 71.3887 22.3636 71.2497 22.3169 71.1131C22.0943 70.5035 21.9447 69.8697 21.8711 69.2249C15.0346 65.9617 7.75368 63.7272 0.264254 62.5938ZM42.7201 83.8846C42.5863 84.063 42.4228 84.2266 42.2891 84.405L41.6501 85.3714C46.5287 90.2278 50.7187 95.7306 54.103 101.726H54.3259C54.6529 101.726 54.3259 101.726 54.5934 101.726C54.8609 101.726 54.5934 101.726 54.742 101.726L55.6931 101.637H56.0943C55.277 100.15 54.4299 98.7376 53.5235 97.3401C53.4194 97.3401 53.3749 97.2657 53.3006 96.9981C50.2963 92.3652 46.8094 88.0641 42.8984 84.1671L42.6904 83.9738L42.7201 83.8846ZM56.9562 101.384C57.1518 101.291 57.3558 101.216 57.5655 101.161H58.68H58.784C58.5165 100.641 58.2342 100.135 57.9518 99.6743C57.3723 99.823 56.9413 99.7486 56.4658 99.8676C55.9903 99.9865 56.5847 99.8676 56.3469 99.8676H56.1538L55.812 99.704C56.1537 100.269 56.4658 100.849 56.7779 101.414L56.9562 101.384ZM59.7351 100.998C60.1363 100.908 60.5226 100.804 60.7604 100.73H60.9685L61.4886 100.507C61.1914 99.9419 60.8793 99.3769 60.5673 98.812C60.1958 98.9606 59.8094 99.0201 59.423 99.1688L59.0218 99.3026L58.8286 99.3918C59.1407 99.9419 59.4379 100.507 59.7351 101.057V100.998ZM62.2316 100.076L62.4396 99.9271C62.6964 99.7089 62.8912 99.4268 63.0043 99.1093L63.0935 98.8863C63.0935 98.8863 63.0935 98.8863 63.0935 98.7971C63.0782 98.6628 63.0234 98.536 62.9362 98.4328C62.8489 98.3296 62.733 98.2546 62.6031 98.2173H62.3951C61.9831 98.1768 61.5696 98.2764 61.2211 98.4998C61.548 99.0647 61.8601 99.6446 62.1573 100.21L62.2316 100.076ZM0.264254 65.27V67.0988C11.6209 68.9161 22.3776 73.428 31.6343 80.2569L31.5452 79.7513V79.6621V79.5729C31.4501 79.3358 31.3949 79.0846 31.3817 78.8295C31.3817 78.5024 31.129 78.324 30.9953 77.9969L30.7129 77.5063L30.4455 77.194L28.8703 76.1533L28.365 75.9749H28.2313C26.4332 75.6776 26.2846 76.0641 24.4271 74.726L23.4166 73.7299C23.2293 73.4397 23.0842 73.1243 22.9856 72.7932C15.9069 69.1113 8.27897 66.6008 0.397991 65.3592L0.264254 65.27ZM41.1598 86.0851C40.6099 86.9325 40.4167 86.769 40.1195 87.1109C40.1195 87.1109 40.1195 87.111 40.1195 87.3042H39.956C44.3432 91.6867 48.158 96.6075 51.3093 101.949C51.4877 101.868 51.6787 101.817 51.874 101.8H52.513H53.2857C49.9871 96.0476 45.9339 90.7622 41.234 86.0851H41.1598ZM0.264254 67.9611V69.8047C13.6514 72.0359 26.0945 78.1341 36.0626 87.3488C35.9491 86.6657 35.775 85.994 35.5425 85.3417C35.2765 84.8152 34.9579 84.317 34.5915 83.8549L34.2051 83.5873C34.1511 83.5535 34.1012 83.5136 34.0565 83.4683L32.5705 82.1302C32.4219 81.9815 32.2733 81.8477 32.1396 81.699C22.7971 74.5465 11.8316 69.8169 0.219675 67.9314L0.264254 67.9611ZM39.1387 87.78L38.9307 87.9435L38.262 88.5531C38.1083 88.6761 37.9688 88.8157 37.8459 88.9694L37.9648 89.0735C42.4118 93.4932 46.2409 98.4946 49.3477 103.941C49.9421 102.975 49.7638 102.811 50.5217 102.455C47.3937 97.1447 43.5981 92.2579 39.2279 87.9138L39.1387 87.78ZM0.264254 70.6373V72.4661C13.4367 74.7538 25.6243 80.931 35.2602 90.2034L35.5723 89.6831C35.6778 89.4651 35.7576 89.2356 35.81 88.9992L35.9289 88.7464C36.0032 88.6126 35.9289 88.7464 36.0032 88.568V88.4342C26.1131 79.0774 13.6697 72.868 0.249379 70.5927L0.264254 70.6373ZM37.2663 89.7128L36.7017 90.5454C36.6969 90.6197 36.6969 90.6942 36.7017 90.7684L36.4936 91.1996V91.4226C41.2618 96.2733 45.2698 101.817 48.3818 107.867C48.376 107.738 48.4015 107.611 48.4561 107.495L48.6196 107.019L48.9614 105.22C45.7924 99.527 41.8407 94.307 37.2217 89.7128H37.2663ZM0.2048 73.3582V75.2018C12.966 77.4962 24.7383 83.5901 33.9822 92.6864L34.3834 91.6605L34.4875 91.4375L34.6806 91.0955C25.175 81.8997 13.1374 75.7587 0.115642 73.4622L0.2048 73.3582ZM0.2048 76.0344V77.8185C12.3422 80.1124 23.513 85.9959 32.2733 94.7084L33.3284 95.7789V94.9315C33.3333 94.5202 33.4087 94.1129 33.5513 93.7272L33.6404 93.519L33.5364 93.4298C24.4337 84.3814 12.8099 78.297 0.18997 75.9749L0.2048 76.0344Z" fill="#746B60"/>
</svg>
